<svg width="136" height="99" viewBox="0 0 136 99" fill="none" xmlns="http://www.w3.org/2000/svg">
<g id="Logo" style="mix-blend-mode:plus-darker">
<path id="Vector" d="M37.59 28.73C36.49 29.15 36.48 29.5967 37.56 30.07C40.34 31.3 43.25 32.2 46.28 32.68C59.3467 34.76 72.8467 35.0367 86.78 33.51C91.08 33.0433 94.89 32.27 98.21 31.19C101.303 30.1833 104.423 29.11 107.57 27.97C115.38 25.13 123.47 28.41 123.92 37.17C124.47 47.77 110.94 53.02 102.49 55.56C102.357 55.5979 102.233 55.6625 102.125 55.7501C102.016 55.8377 101.926 55.9465 101.86 56.07C95.93 67.3 84.96 76.02 72.3 76.99C61.86 77.79 52.34 73.71 45.05 66.41C44.81 66.1633 44.52 66.07 44.18 66.13C39.04 67.01 34.31 68.0333 29.99 69.2C27.8433 69.78 25.8267 70.6533 23.94 71.82C23.7835 71.917 23.6503 72.0475 23.5501 72.202C23.4498 72.3565 23.385 72.5313 23.3601 72.7138C23.3353 72.8963 23.3511 73.082 23.4064 73.2577C23.4617 73.4333 23.5551 73.5946 23.68 73.73C28.19 78.62 37.09 80.82 43.55 82C57.47 84.5467 71.8467 84.9867 86.68 83.32C95.2 82.36 102.78 80.5467 109.42 77.88C111.55 77.02 113.55 75.73 115.09 73.99C115.419 73.6186 115.614 73.1475 115.645 72.6513C115.676 72.155 115.54 71.6619 115.26 71.25C113.33 68.43 109.23 66.9 106.16 65.68C104.627 65.0667 104.007 63.9467 104.3 62.32C104.347 62.0467 104.447 61.7933 104.6 61.56C105.32 60.4733 106.3 60.12 107.54 60.5C111.86 61.82 117.53 64.53 119.94 68.54C122.54 72.87 120.17 77.64 116.32 80.11C111.447 83.2367 105.833 85.4367 99.48 86.71C78.5933 90.8833 58.4167 90.8267 38.95 86.54C32.2 85.06 23.56 82.39 19.46 77.04C11.14 66.19 34.14 62.29 39.49 61.41C39.6028 61.3923 39.7094 61.3465 39.7999 61.2768C39.8904 61.2071 39.9619 61.1157 40.0077 61.011C40.0535 60.9064 40.0723 60.7919 40.0622 60.6781C40.0521 60.5643 40.0135 60.4549 39.95 60.36C36.89 55.8133 34.5733 50.96 33 45.8C32.4867 44.1267 33.0333 42.9333 34.64 42.22C35.3467 41.9067 36.1533 42.01 37.06 42.53C37.5294 42.8062 37.8761 43.2494 38.03 43.77C39.77 49.6033 42.4767 54.8867 46.15 59.62C46.4233 59.9667 46.78 60.1133 47.22 60.06C61.4667 58.2933 75.64 56.0267 89.74 53.26C92.6467 52.6933 95.3567 52.03 97.87 51.27C98.0701 51.2104 98.2547 51.1068 98.4103 50.9668C98.5659 50.8267 98.6888 50.6536 98.77 50.46C100.757 45.6867 102.107 40.89 102.82 36.07C102.829 36.0073 102.822 35.9432 102.8 35.8838C102.778 35.8243 102.742 35.7713 102.694 35.7295C102.646 35.6878 102.589 35.6586 102.527 35.6447C102.465 35.6308 102.401 35.6327 102.34 35.65C90.58 39.16 79.98 39.94 66.5 39.79C59.69 39.72 32.99 38.63 30.98 30.68C30.36 28.2267 31.4 26.2433 34.1 24.73C37.23 22.97 41.2 21.76 44.78 21.17C61.5733 18.4167 78.4067 18.48 95.28 21.36C95.7306 21.4355 96.1465 21.6482 96.4707 21.9687C96.7948 22.2893 97.0112 22.702 97.09 23.15C97.23 23.93 97.14 24.6167 96.82 25.21C96.2067 26.3433 95.45 26.8333 94.55 26.68C77.5433 23.7867 60.6633 23.7833 43.91 26.67C41.7 27.05 39.66 27.95 37.59 28.73ZM108.4 33.98C107.93 38.77 107.03 43.42 105.52 48.28C105.5 48.3452 105.498 48.4148 105.516 48.4807C105.534 48.5465 105.57 48.606 105.621 48.6521C105.671 48.6982 105.733 48.7291 105.8 48.7411C105.868 48.7531 105.937 48.7458 106 48.72C109.093 47.52 111.953 46.0033 114.58 44.17C121.86 39.06 118.32 29.4 109.02 33.15C108.647 33.3033 108.44 33.58 108.4 33.98ZM52.25 65.51C61.45 73.13 74.12 73.44 84.13 67.52C87.7567 65.3733 90.96 62.44 93.74 58.72C94.1467 58.18 94.0167 57.9733 93.35 58.1C80.4833 60.5867 66.8533 62.8133 52.46 64.78C52.3797 64.7925 52.3043 64.8277 52.2431 64.8814C52.1818 64.935 52.1374 65.0048 52.1151 65.0822C52.0929 65.1596 52.0938 65.2412 52.1177 65.3172C52.1417 65.3932 52.1876 65.4602 52.25 65.51Z" fill="#0C3B2E"/>
</g>
</svg>
