<svg width="24" height="24" viewBox="0 0 24 24" fill="none" xmlns="http://www.w3.org/2000/svg">
<g id="searchperson">
<path id="Vector" d="M10.8049 12.2051C9.73171 12.2051 8.81301 11.8034 8.04878 11C7.28455 10.1966 6.90244 9.23077 6.90244 8.10256C6.90244 6.97436 7.28455 6.00855 8.04878 5.20513C8.81301 4.40171 9.73171 4 10.8049 4C11.878 4 12.7967 4.40171 13.561 5.20513C14.3252 6.00855 14.7073 6.97436 14.7073 8.10256C14.7073 9.23077 14.3252 10.1966 13.561 11C12.7967 11.8034 11.878 12.2051 10.8049 12.2051ZM10.8049 10.1538C11.3415 10.1538 11.8008 9.95299 12.1829 9.55128C12.565 9.14957 12.7561 8.66667 12.7561 8.10256C12.7561 7.53846 12.565 7.05556 12.1829 6.65385C11.8008 6.25214 11.3415 6.05128 10.8049 6.05128C10.2683 6.05128 9.80894 6.25214 9.42683 6.65385C9.04472 7.05556 8.85366 7.53846 8.85366 8.10256C8.85366 8.66667 9.04472 9.14957 9.42683 9.55128C9.80894 9.95299 10.2683 10.1538 10.8049 10.1538ZM21.6341 24L18.5122 20.7179C18.1707 20.9231 17.8049 21.094 17.4146 21.2308C17.0244 21.3675 16.6098 21.4359 16.1707 21.4359C14.9512 21.4359 13.9146 20.9872 13.061 20.0897C12.2073 19.1923 11.7805 18.1026 11.7805 16.8205C11.7805 15.5385 12.2073 14.4487 13.061 13.5513C13.9146 12.6538 14.9512 12.2051 16.1707 12.2051C17.3902 12.2051 18.4268 12.6538 19.2805 13.5513C20.1341 14.4487 20.561 15.5385 20.561 16.8205C20.561 17.2821 20.4959 17.7179 20.3659 18.1282C20.2358 18.5385 20.0732 18.9231 19.878 19.2821L23 22.5641L21.6341 24ZM16.1707 19.3846C16.8537 19.3846 17.4309 19.1368 17.9024 18.641C18.374 18.1453 18.6098 17.5385 18.6098 16.8205C18.6098 16.1026 18.374 15.4957 17.9024 15C17.4309 14.5043 16.8537 14.2564 16.1707 14.2564C15.4878 14.2564 14.9106 14.5043 14.439 15C13.9675 15.4957 13.7317 16.1026 13.7317 16.8205C13.7317 17.5385 13.9675 18.1453 14.439 18.641C14.9106 19.1368 15.4878 19.3846 16.1707 19.3846ZM3 20.4103V17.5641C3 16.9829 3.13821 16.4444 3.41463 15.9487C3.69106 15.453 4.07317 15.0769 4.56098 14.8205C5.39024 14.3761 6.3252 14 7.36585 13.6923C8.4065 13.3846 9.56098 13.2308 10.8293 13.2308C10.6341 13.5385 10.4675 13.8675 10.3293 14.2179C10.1911 14.5684 10.0813 14.9316 10 15.3077C9.02439 15.3932 8.15447 15.5684 7.39024 15.8333C6.62602 16.0983 5.98374 16.3761 5.46341 16.6667C5.30081 16.7521 5.1748 16.8761 5.08537 17.0385C4.99593 17.2009 4.95122 17.3761 4.95122 17.5641V18.359H10C10.0813 18.735 10.1911 19.094 10.3293 19.4359C10.4675 19.7778 10.6341 20.1026 10.8293 20.4103H3Z" fill="#757575"/>
</g>
</svg>
